<svg version="1.1" id="Layer_1" xmlns="http://www.w3.org/2000/svg" xmlns:xlink="http://www.w3.org/1999/xlink" x="0px" y="0px" width="32px" height="32px" viewBox="0 0 32 32" enable-background="new 0 0 32 32" xml:space="preserve">
  <g id="icon" style="opacity: 0.2">
    <path d="M24.076,27.916c-0.363,-0.324,-0.795,-0.69,-1.203,-1.081c-0.399,-0.383,-0.846,-0.546,-1.38,-0.378c-0.257,0.081,-0.501,0.205,-0.751,0.308c-0.366,0.152,-0.737,0.295,-1.099,0.457c-0.448,0.2,-0.715,0.549,-0.75,1.044c-0.043,0.615,-0.065,1.231,-0.099,1.847c-0.028,0.519,-0.411,0.884,-0.93,0.885C16.661,31,15.455,31,14.249,31c-0.522,0,-0.913,-0.371,-0.944,-0.895c-0.033,-0.551,-0.075,-1.101,-0.093,-1.653c-0.021,-0.638,-0.315,-1.059,-0.914,-1.288c-0.562,-0.215,-1.109,-0.47,-1.671,-0.685c-0.46,-0.176,-0.894,-0.096,-1.267,0.231c-0.461,0.405,-0.914,0.82,-1.373,1.228c-0.336,0.299,-0.827,0.33,-1.189,0.064c-1.057,-0.778,-1.974,-1.7,-2.764,-2.746c-0.285,-0.378,-0.221,-0.896,0.121,-1.27c0.403,-0.439,0.809,-0.876,1.192,-1.332c0.316,-0.377,0.372,-0.818,0.187,-1.276c-0.239,-0.59,-0.485,-1.177,-0.738,-1.76c-0.201,-0.464,-0.559,-0.731,-1.067,-0.765c-0.606,-0.042,-1.213,-0.067,-1.82,-0.101c-0.525,-0.029,-0.895,-0.419,-0.897,-0.941c-0.004,-1.201,-0.009,-2.402,-0.013,-3.603c-0.002,-0.534,0.359,-0.918,0.896,-0.949c0.583,-0.034,1.167,-0.062,1.75,-0.095c0.552,-0.032,0.934,-0.3,1.144,-0.816c0.233,-0.574,0.483,-1.14,0.707,-1.717c0.179,-0.461,0.12,-0.903,-0.212,-1.285c-0.395,-0.454,-0.801,-0.899,-1.203,-1.347c-0.38,-0.425,-0.389,-0.944,-0.018,-1.381c0.344,-0.404,0.67,-0.828,1.049,-1.197c0.512,-0.499,1.06,-0.961,1.607,-1.423c0.284,-0.24,0.833,-0.238,1.178,0.075c0.481,0.437,0.954,0.884,1.457,1.293c0.358,0.291,0.79,0.332,1.22,0.16c0.598,-0.239,1.193,-0.485,1.783,-0.743c0.45,-0.197,0.712,-0.551,0.746,-1.047c0.041,-0.601,0.064,-1.204,0.095,-1.806c0.029,-0.563,0.405,-0.92,0.968,-0.92c1.178,0,2.355,0.014,3.533,-0.008c0.533,-0.01,0.991,0.422,1,0.952c0.011,0.598,0.057,1.196,0.103,1.792c0.037,0.479,0.293,0.83,0.725,1.023c0.6,0.269,1.211,0.514,1.824,0.754c0.471,0.185,0.913,0.104,1.293,-0.229c0.448,-0.392,0.89,-0.792,1.326,-1.197c0.393,-0.365,0.952,-0.309,1.261,-0.076c1.035,0.784,1.944,1.692,2.73,2.724c0.283,0.371,0.223,0.906,-0.096,1.248c-0.359,0.384,-0.699,0.786,-1.052,1.176c-0.183,0.202,-0.354,0.407,-0.412,0.685c-0.057,0.278,-0.039,0.544,0.075,0.809c0.242,0.563,0.474,1.13,0.712,1.695c0.208,0.495,0.579,0.769,1.116,0.802c0.588,0.036,1.176,0.063,1.764,0.096c0.554,0.031,0.917,0.413,0.919,0.963c0.004,1.201,0.009,2.402,0.013,3.604c0.002,0.503,-0.369,0.898,-0.874,0.926c-0.593,0.034,-1.185,0.063,-1.778,0.098c-0.553,0.032,-0.932,0.307,-1.141,0.821c-0.233,0.574,-0.48,1.142,-0.705,1.718c-0.179,0.458,-0.118,0.896,0.207,1.273c0.402,0.466,0.813,0.926,1.235,1.375c0.317,0.337,0.356,0.942,0.019,1.316c-0.434,0.48,-0.83,0.996,-1.286,1.453c-0.429,0.43,-0.907,0.813,-1.38,1.197C24.966,28.265,24.484,28.236,24.076,27.916zM10.274,24.176c4.352,3.036,10.593,2.321,13.92,-2.432c3.217,-4.596,1.974,-10.693,-2.384,-13.841c-4.289,-3.098,-10.622,-2.467,-14.006,2.365C4.593,14.852,5.793,20.98,10.274,24.176z" fill="#b1cebe"/>
  </g>
</svg>
