<svg version="1.1" id="Layer_1" xmlns="http://www.w3.org/2000/svg" xmlns:xlink="http://www.w3.org/1999/xlink" x="0px" y="0px" width="32px" height="32px" viewBox="0 0 32 32" enable-background="new 0 0 32 32" xml:space="preserve">
  <g id="main">
    <g id="icon">
      <path d="M13.17,0.009961L12.78,0.07461L12.48,0.2588L12.28,0.5488L12.2,0.9301L12.1,2.736L12.04,3.081L11.89,3.372L11.66,3.606L11.36,3.783L9.574,4.526L9.252,4.614L8.937,4.62L8.635,4.538L8.354,4.366L6.897,3.073L6.607,2.896L6.285,2.828L5.974,2.864L5.719,2.998L4.902,3.696L4.112,4.421L3.574,5.006L3.063,5.618L2.856,5.958L2.79,6.313L2.866,6.665L3.081,6.999L4.284,8.346L4.482,8.643L4.582,8.959L4.585,9.289L4.496,9.631L3.789,11.35L3.599,11.69L3.345,11.94L3.027,12.1L2.645,12.16L0.8949,12.26L0.5281,12.35L0.2449,12.54L0.0627,12.84L-0,13.2L0,13.48L0.01191,16.81L0.0791,17.17L0.2645,17.47L0.5477,17.67L0.909,17.75L2.729,17.85L3.082,17.92L3.378,18.07L3.616,18.31L3.796,18.62L4.534,20.38L4.627,20.72L4.628,21.05L4.536,21.36L4.347,21.65L3.155,22.99L2.952,23.29L2.859,23.62L2.885,23.95L3.034,24.26L3.651,25.02L4.316,25.73L5.031,26.39L5.798,27L6.089,27.15L6.402,27.18L6.71,27.11L6.987,26.94L8.36,25.71L8.651,25.51L8.961,25.41L9.288,25.39L9.627,25.48L11.3,26.16L11.69,26.37L11.97,26.65L12.14,27.01L12.21,27.45L12.31,29.11L12.39,29.47L12.59,29.75L12.89,29.93L13.25,30L16.86,30L17.22,29.93L17.51,29.75L17.71,29.47L17.79,29.11L17.82,28.71L17.54,28.16L17.19,27.16L16.97,26.1L16.9,25L16.91,24.82L16.62,24.88L15.67,24.98L14.71,24.99L13.76,24.91L12.82,24.75L11.89,24.49L10.99,24.14L10.11,23.7L9.274,23.18L8.472,22.54L7.75,21.85L7.107,21.1L6.546,20.3L6.069,19.46L5.677,18.58L5.371,17.67L5.154,16.74L5.028,15.8L4.993,14.84L5.052,13.88L5.205,12.93L5.456,11.98L5.804,11.05L6.253,10.14L6.804,9.268L7.472,8.411L8.202,7.652L8.986,6.99L9.817,6.424L10.69,5.954L11.59,5.579L12.52,5.299L13.47,5.112L14.43,5.018L15.39,5.016L16.34,5.105L17.29,5.286L18.21,5.557L19.12,5.917L19.98,6.366L20.81,6.903L21.59,7.527L22.3,8.213L22.92,8.955L23.47,9.747L23.94,10.58L24.33,11.45L24.63,12.36L24.84,13.28L24.97,14.22L25,15.18L24.94,16.13L24.82,16.91L25,16.9L26.1,16.97L27.16,17.19L28.16,17.54L28.63,17.78L29.13,17.75L29.48,17.66L29.75,17.46L29.94,17.18L30,16.82L29.99,13.22L29.92,12.84L29.73,12.54L29.45,12.34L29.07,12.26L27.3,12.16L26.93,12.09L26.62,11.93L26.37,11.69L26.19,11.36L25.48,9.663L25.37,9.263L25.4,8.854L25.56,8.483L25.81,8.169L26.87,6.993L27.05,6.706L27.14,6.38L27.11,6.048L26.96,5.745L26.35,4.994L25.69,4.29L24.98,3.632L24.23,3.021L23.96,2.883L23.63,2.835L23.29,2.898L22.97,3.097L21.64,4.294L21.35,4.496L21.03,4.603L20.7,4.612L20.35,4.523L18.53,3.769L18.24,3.595L18.02,3.365L17.87,3.081L17.8,2.746L17.7,0.9539L17.61,0.5803L17.4,0.2756L17.08,0.07207L16.7,0.001953zz" fill="#797979"/>
    </g>
    <g id="overlay">
      <path d="M25,18c-3.866,0,-7,3.134,-7,7c0,3.866,3.134,7,7,7s7,-3.134,7,-7C32,21.134,28.866,18,25,18zM26,29.8c0,0.1105,-0.0895,0.2,-0.2,0.2h-1.6c-0.1105,0,-0.2,-0.0895,-0.2,-0.2v-6.6c0,-0.1105,0.0895,-0.2,0.2,-0.2h1.6c0.1105,0,0.2,0.0895,0.2,0.2V29.8zM26,21.5c0,0.1105,-0.0895,0.2,-0.2,0.2h-1.6c-0.1105,0,-0.2,-0.0895,-0.2,-0.2v-1.3c0,-0.1105,0.0895,-0.2,0.2,-0.2h1.6c0.1105,0,0.2,0.0895,0.2,0.2V21.5z" fill-rule="evenodd" fill="#3E79B4"/>
      <path d="M26,20.2c0,-0.1105,-0.0895,-0.2,-0.2,-0.2h-1.6c-0.1105,0,-0.2,0.0895,-0.2,0.2v1.3c0,0.1105,0.0895,0.2,0.2,0.2h1.6c0.1105,0,0.2,-0.0895,0.2,-0.2V20.2z" fill="#FFFFFF"/>
      <path d="M26,23.2c0,-0.1105,-0.0895,-0.2,-0.2,-0.2h-1.6c-0.1105,0,-0.2,0.0895,-0.2,0.2v6.6c0,0.1105,0.0895,0.2,0.2,0.2h1.6c0.1105,0,0.2,-0.0895,0.2,-0.2V23.2z" fill="#FFFFFF"/>
    </g>
  </g>
</svg>