<svg version="1.1" id="Layer_1" xmlns="http://www.w3.org/2000/svg" xmlns:xlink="http://www.w3.org/1999/xlink" x="0px" y="0px" width="16px" height="16px" viewBox="0 0 16 16" enable-background="new 0 0 16 16" xml:space="preserve">
  <g id="main">
    <g id="icon">
      <path d="M6.586,0.00293L6.394,0.03516L6.244,0.1273L6.144,0.2721L6.102,0.4631L6.054,1.366L5.946,1.684L5.681,1.89L4.789,2.261L4.471,2.308L4.179,2.181L3.45,1.535L3.305,1.446L3.144,1.413L2.989,1.431L2.861,1.498L2.057,2.21L1.533,2.809L1.429,2.979L1.396,3.156L1.434,3.332L1.542,3.499L2.143,4.173L2.292,4.479L2.249,4.815L1.895,5.674L1.8,5.844L1.673,5.969L1.514,6.048L1.323,6.082L0.448,6.13L0.2648,6.173L0.123,6.273L0.03184,6.42L-0,6.605L0.007031,8.407L0.04062,8.589L0.1332,8.735L0.275,8.835L0.4561,8.878L1.366,8.929L1.69,9.04L1.9,9.312L2.269,10.19L2.317,10.53L2.176,10.83L1.58,11.5L1.478,11.65L1.431,11.81L1.444,11.98L1.519,12.13L2.16,12.87L2.901,13.5L3.046,13.58L3.203,13.59L3.357,13.56L3.495,13.47L4.182,12.86L4.483,12.71L4.816,12.74L5.651,13.08L5.847,13.19L5.988,13.33L6.074,13.51L6.108,13.73L6.154,14.56L6.197,14.74L6.298,14.88L6.444,14.97L6.626,15L7.274,15L6.98,14.63L6.641,14.07L6.368,13.48L6.167,12.85L6.043,12.19L6.031,12L5.588,11.85L4.773,11.39L4.047,10.76L3.473,10.02L3.059,9.206L2.811,8.331L2.734,7.425L2.835,6.512L3.12,5.619L3.596,4.77L3.914,4.362L4.262,4L4.635,3.685L5.031,3.415L5.877,3.013L6.77,2.79L7.684,2.744L8.59,2.873L9.461,3.173L10.27,3.643L10.98,4.267L11.54,4.998L11.94,5.811L12.01,6.031L12.19,6.043L12.85,6.167L13.48,6.368L14.07,6.641L14.63,6.98L15,7.27L14.99,6.608L14.96,6.419L14.87,6.27L14.72,6.169L14.53,6.126L13.65,6.078L13.47,6.044L13.31,5.964L13.19,5.842L13.09,5.677L12.74,4.829L12.69,4.63L12.7,4.425L12.78,4.24L12.91,4.083L13.43,3.495L13.53,3.352L13.57,3.189L13.56,3.023L13.48,2.871L12.85,2.144L12.12,1.509L11.98,1.44L11.82,1.415L11.65,1.447L11.49,1.547L10.82,2.146L10.52,2.3L10.18,2.26L9.266,1.883L9.012,1.68L8.904,1.371L8.852,0.475L8.809,0.2881L8.7,0.1357L8.542,0.03398L8.357,0L7.911,0zz" fill="#797979"/>
    </g>
    <g id="overlay">
      <path d="M11.5,16c2.4853,0,4.5,-2.0147,4.5,-4.5c0,-2.4853,-2.0147,-4.5,-4.5,-4.5s-4.5,2.0147,-4.5,4.5C7,13.9853,9.0147,16,11.5,16zM11,9h1v1h-1V9zM11,11h1v3h-1V11z" fill-rule="evenodd" fill="#3E79B4"/>
      <rect x="11" y="11" width="1" height="3" fill-rule="evenodd" fill="#FFFFFF"/>
      <rect x="11" y="9" width="1" height="1" fill-rule="evenodd" fill="#FFFFFF"/>
    </g>
  </g>
</svg>